<svg width="20" height="21" viewBox="0 0 20 21" fill="none" xmlns="http://www.w3.org/2000/svg">
<path d="M9.9974 2.50116C5.41406 2.50116 1.66406 6.24403 1.66406 10.8186C1.66406 15.3933 5.41406 19.1361 9.9974 19.1361C14.5807 19.1361 18.3307 15.3933 18.3307 10.8186C18.3307 6.24403 14.5807 2.50116 9.9974 2.50116ZM12.9557 13.9793L9.55573 11.8916C9.30573 11.7419 9.15573 11.4757 9.15573 11.1846V7.28372C9.16406 6.9427 9.4474 6.6599 9.78906 6.6599C10.1307 6.6599 10.4141 6.9427 10.4141 7.28372V10.985L13.6141 12.9063C13.9141 13.0893 14.0141 13.4802 13.8307 13.7797C13.6474 14.0708 13.2557 14.1623 12.9557 13.9793Z" fill="#333333"/>
</svg>
