<svg width="20" height="20" viewBox="0 0 20 20" fill="none" xmlns="http://www.w3.org/2000/svg">
<g clip-path="url(#clip0)">
<path d="M15.8331 4.99621H14.1664C14.1664 2.70058 12.2998 0.837463 9.99976 0.837463C7.69976 0.837463 5.83309 2.70058 5.83309 4.99621H4.16642C3.24976 4.99621 2.49976 5.74478 2.49976 6.6597V16.6407C2.49976 17.5556 3.24976 18.3042 4.16642 18.3042H15.8331C16.7498 18.3042 17.4998 17.5556 17.4998 16.6407V6.6597C17.4998 5.74478 16.7498 4.99621 15.8331 4.99621ZM9.99976 2.50096C11.3831 2.50096 12.4998 3.6155 12.4998 4.99621H7.49976C7.49976 3.6155 8.61642 2.50096 9.99976 2.50096ZM9.99976 10.8184C8.05809 10.8184 6.42476 9.49597 5.96642 7.69939C5.82476 7.17539 6.23309 6.6597 6.77476 6.6597C7.16642 6.6597 7.48309 6.9425 7.59142 7.3251C7.88309 8.38142 8.84976 9.15495 9.99976 9.15495C11.1498 9.15495 12.1164 8.38142 12.4081 7.3251C12.5164 6.9425 12.8331 6.6597 13.2248 6.6597C13.7664 6.6597 14.1664 7.17539 14.0331 7.69939C13.5748 9.49597 11.9414 10.8184 9.99976 10.8184Z" fill="#333333"/>
</g>
<defs>
<clipPath id="clip0">
<rect width="20" height="19.962" fill="white" transform="translate(0 0.0057373)"/>
</clipPath>
</defs>
</svg>
