<svg xmlns="http://www.w3.org/2000/svg" width="20" height="20" viewBox="0 0 37.7 37.7">
    <path fill="#fff" d="M31.8,36.16c.57-.57,.8-1.4,.64-2.2l-4.49-19.43,8.76-8.76c1.32-1.32,1.32-3.46,0-4.78s-3.46-1.32-4.78,0l-8.76,8.76L3.73,5.26c-.78-.18-1.62,.06-2.2,.64-1.11,1.11-.84,3.01,.57,3.76l13.89,7.26L7.24,25.68l-5.02-.72c-.35-.06-.7,.06-.96,.32l-.94,.94c-.53,.53-.4,1.42,.25,1.78l5.86,3.25,3.25,5.86c.37,.65,1.26,.78,1.78,.25l.94-.94c.25-.25,.38-.61,.32-.96l-.72-5.02,8.76-8.76,7.26,13.89c.75,1.42,2.64,1.69,3.76,.57Z"/>
</svg>