<svg width="20" height="20" viewBox="0 0 20 20" fill="none" xmlns="http://www.w3.org/2000/svg">
<path d="M17.5026 2.50098H2.5026C1.58594 2.50098 0.835938 3.24955 0.835938 4.16447V15.809C0.835938 16.7239 1.58594 17.4725 2.5026 17.4725H17.5026C18.4193 17.4725 19.1693 16.7239 19.1693 15.809V4.16447C19.1693 3.24955 18.4193 2.50098 17.5026 2.50098ZM16.6693 15.809H10.8359C10.3776 15.809 10.0026 15.4347 10.0026 14.9772V11.6502C10.0026 11.1928 10.3776 10.8185 10.8359 10.8185H16.6693C17.1276 10.8185 17.5026 11.1928 17.5026 11.6502V14.9772C17.5026 15.4347 17.1276 15.809 16.6693 15.809Z" fill="white"/>
</svg>
