<svg width="20" height="20" viewBox="0 0 20 20" fill="none" xmlns="http://www.w3.org/2000/svg">
<path d="M17.4998 1.84395C17.3914 1.84395 17.2831 1.88554 17.2081 1.96871L16.5498 2.62579C16.3831 2.79214 16.1248 2.79214 15.9581 2.62579L15.2998 1.96871C15.1331 1.80236 14.8748 1.80236 14.7081 1.96871L14.0498 2.62579C13.8831 2.79214 13.6248 2.79214 13.4581 2.62579L12.7998 1.96871C12.6331 1.80236 12.3748 1.80236 12.2081 1.96871L11.5498 2.62579C11.3831 2.79214 11.1248 2.79214 10.9581 2.62579L10.2998 1.96871C10.1331 1.80236 9.87476 1.80236 9.70809 1.96871L9.04976 2.62579C8.88309 2.79214 8.62476 2.79214 8.45809 2.62579L7.79142 1.96039C7.62476 1.79404 7.36642 1.79404 7.19976 1.96039L6.54142 2.62579C6.37476 2.79214 6.11642 2.79214 5.94976 2.62579L5.29142 1.96039C5.12476 1.79404 4.86642 1.79404 4.69976 1.96039L4.04142 2.62579C3.87476 2.79214 3.61642 2.79214 3.44976 2.62579L2.79142 1.96039C2.71642 1.88554 2.60809 1.84395 2.49976 1.84395V18.1379C2.60809 18.1379 2.71642 18.0963 2.79142 18.0131L3.44976 17.3561C3.61642 17.1897 3.87476 17.1897 4.04142 17.3561L4.69976 18.0131C4.86642 18.1795 5.12476 18.1795 5.29142 18.0131L5.94976 17.3561C6.11642 17.1897 6.37476 17.1897 6.54142 17.3561L7.19976 18.0131C7.36642 18.1795 7.62476 18.1795 7.79142 18.0131L8.44976 17.3561C8.61642 17.1897 8.87476 17.1897 9.04142 17.3561L9.69976 18.0131C9.86642 18.1795 10.1248 18.1795 10.2914 18.0131L10.9498 17.3561C11.1164 17.1897 11.3748 17.1897 11.5414 17.3561L12.1998 18.0131C12.3664 18.1795 12.6248 18.1795 12.7914 18.0131L13.4498 17.3561C13.6164 17.1897 13.8748 17.1897 14.0414 17.3561L14.6998 18.0131C14.8664 18.1795 15.1248 18.1795 15.2914 18.0131L15.9498 17.3561C16.1164 17.1897 16.3748 17.1897 16.5414 17.3561L17.1998 18.0131C17.2831 18.0963 17.3914 18.1379 17.4914 18.1379V1.84395H17.4998ZM14.1664 14.1455H5.83309C5.37476 14.1455 4.99976 13.7712 4.99976 13.3138C4.99976 12.8563 5.37476 12.482 5.83309 12.482H14.1664C14.6248 12.482 14.9998 12.8563 14.9998 13.3138C14.9998 13.7712 14.6248 14.1455 14.1664 14.1455ZM14.1664 10.8185H5.83309C5.37476 10.8185 4.99976 10.4442 4.99976 9.98677C4.99976 9.52931 5.37476 9.15502 5.83309 9.15502H14.1664C14.6248 9.15502 14.9998 9.52931 14.9998 9.98677C14.9998 10.4442 14.6248 10.8185 14.1664 10.8185ZM14.1664 7.49152H5.83309C5.37476 7.49152 4.99976 7.11724 4.99976 6.65977C4.99976 6.20231 5.37476 5.82803 5.83309 5.82803H14.1664C14.6248 5.82803 14.9998 6.20231 14.9998 6.65977C14.9998 7.11724 14.6248 7.49152 14.1664 7.49152Z" fill="white"/>
</svg>
