<svg xmlns="http://www.w3.org/2000/svg" width="20" height="20" fill="none"><mask id="a" width="20" height="20" x="0" y="0" maskUnits="userSpaceOnUse" style="mask-type:alpha"><path fill="#D9D9D9" d="M0 0h20v20H0z"/></mask><g mask="url(#a)"><path fill="#fff" fill-rule="evenodd" d="M3.405 5.602A2.998 2.998 0 0 0 2 8.135v6.858C2 16.653 3.364 18 5.048 18h9.904C16.636 18 18 16.654 18 14.993V8.135c0-1.025-.53-1.98-1.405-2.533l-4.952-3.128a3.082 3.082 0 0 0-3.286 0L3.405 5.602Zm3.928 2.037c0 .52-.426.94-.952.94a.946.946 0 0 1-.952-.94c0-.519.426-.94.952-.94s.952.421.952.94Zm7.239 0c0 .52-.427.94-.953.94a.946.946 0 0 1-.952-.94c0-.519.426-.94.952-.94s.953.421.953.94Zm-7.977 2.936c.387 1.5 1.767 2.604 3.406 2.604 1.64 0 3.019-1.104 3.406-2.604a.7.7 0 0 0-.683-.868c-.33 0-.598.236-.69.555a2.104 2.104 0 0 1-2.033 1.528 2.104 2.104 0 0 1-2.033-1.527c-.092-.32-.36-.556-.69-.556-.457 0-.802.43-.683.868Z" clip-rule="evenodd"/></g></svg>