<svg width="20" height="21" viewBox="0 0 20 21" fill="none" xmlns="http://www.w3.org/2000/svg">
<path d="M16.1904 11.6341C16.2238 11.368 16.2488 11.1018 16.2488 10.819C16.2488 10.5362 16.2238 10.2701 16.1904 10.0039L17.9488 8.63151C18.1071 8.50675 18.1488 8.28218 18.0488 8.09919L16.3821 5.22134C16.2821 5.03836 16.0571 4.97182 15.8738 5.03836L13.7988 5.87011C13.3654 5.53741 12.8988 5.26293 12.3904 5.05499L12.0738 2.85086C12.0488 2.65124 11.8738 2.50153 11.6654 2.50153H8.3321C8.12377 2.50153 7.94877 2.65124 7.92377 2.85086L7.6071 5.05499C7.09877 5.26293 6.6321 5.54573 6.19877 5.87011L4.12377 5.03836C3.9321 4.9635 3.71543 5.03836 3.61543 5.22134L1.94877 8.09919C1.84043 8.28218 1.89043 8.50675 2.04877 8.63151L3.8071 10.0039C3.77377 10.2701 3.74877 10.5445 3.74877 10.819C3.74877 11.0935 3.77377 11.368 3.8071 11.6341L2.04877 13.0065C1.89043 13.1313 1.84877 13.3558 1.94877 13.5388L3.61543 16.4167C3.71543 16.5997 3.94043 16.6662 4.12377 16.5997L6.19877 15.7679C6.6321 16.1006 7.09877 16.3751 7.6071 16.583L7.92377 18.7872C7.94877 18.9868 8.12377 19.1365 8.3321 19.1365H11.6654C11.8738 19.1365 12.0488 18.9868 12.0738 18.7872L12.3904 16.583C12.8988 16.3751 13.3654 16.0923 13.7988 15.7679L15.8738 16.5997C16.0654 16.6745 16.2821 16.5997 16.3821 16.4167L18.0488 13.5388C18.1488 13.3558 18.1071 13.1313 17.9488 13.0065L16.1904 11.6341ZM9.99877 13.7301C8.39043 13.7301 7.0821 12.4243 7.0821 10.819C7.0821 9.21374 8.39043 7.90789 9.99877 7.90789C11.6071 7.90789 12.9154 9.21374 12.9154 10.819C12.9154 12.4243 11.6071 13.7301 9.99877 13.7301Z" fill="white"/>
</svg>
