<svg width="32" height="22" viewBox="0 0 32 22" fill="none" xmlns="http://www.w3.org/2000/svg">
<path d="M16.8793 2.38157C17.1327 2.63181 17.4864 3.16564 17.8352 3.79465L19.8226 5.66992L17.8352 7.74342L17.8352 8.31257L21.4463 10.7747C21.4364 12.1279 20.3175 13.225 18.9471 13.2152L21.0458 16.7047C20.6841 17.5064 19.8733 18.0677 18.9263 18.0677L17.9723 18.0677L13.8306 21.9929L11.6594 21.9772L0.998007 12.1799C0.998007 12.1799 16.1896 1.85854 16.1598 1.83401C16.3814 1.9606 16.8574 2.33742 16.8793 2.38157Z" fill="#EF9645"/>
<path d="M29.9997 3.79486C31.0997 3.79486 32 4.68392 32 5.77023C32 6.85653 31.0997 7.74559 29.9997 7.74559L17.8319 7.74559L17.8319 3.79584L29.9997 3.79584L29.9997 3.79486ZM17.8329 8.31376L19.864 8.31376C20.96 8.32161 21.8424 9.20577 21.8345 10.2881C21.8265 11.3705 20.9312 12.2419 19.8352 12.2341L17.8319 12.2223L17.8319 8.31376L17.8329 8.31376ZM19.8739 20.1198L19.8739 19.955C19.8739 18.9158 19.0213 18.0748 17.969 18.0748L13.8293 18.0748C12.7769 18.0748 11.9244 18.9158 11.9244 19.955L11.9244 20.1198C11.9244 21.159 12.7769 22 13.8293 22L17.969 22C19.0213 22 19.8739 21.159 19.8739 20.1198ZM16.9326 13.3312L16.871 13.3861C16.3453 13.8513 15.6676 14.1496 14.9054 14.1496C14.8428 14.1496 14.7832 14.1368 14.7216 14.1319C14.0479 14.0887 13.4378 13.8297 12.9588 13.4175C12.8306 13.4872 12.7173 13.5775 12.608 13.6717C12.1936 14.0308 11.9244 14.545 11.9244 15.1309C11.9244 16.2142 12.8147 17.0935 13.9117 17.0935L19.8739 17.0935C20.3121 17.0935 20.7136 16.9492 21.0425 16.7118C21.5364 16.3546 21.8613 15.7825 21.8613 15.1309C21.8613 14.0475 20.971 13.1683 19.8739 13.1683L17.1134 13.1683C17.0588 13.2281 16.9912 13.2752 16.9326 13.3312V13.3312Z" fill="#FFDC5D"/>
<path d="M10.9304 19.9764C10.9304 18.9715 11.4531 18.0874 12.2441 17.5722C12.0622 17.4515 11.9002 17.3062 11.7502 17.1492C10.6422 15.9864 10.7128 14.172 11.8357 13.0601C11.9867 12.911 12.1387 12.7628 12.3206 12.649L12.3236 12.6519C12.2093 12.4547 11.9241 12.1868 11.9241 11.2055L11.9241 8.71592C11.6469 9.079 11.305 9.41068 10.9304 9.72078C9.47265 10.9258 7.34713 11.6961 4.96822 11.6961C4.69396 11.6961 4.47138 11.4763 4.47138 11.2055C4.47138 10.9346 4.69396 10.7148 4.96822 10.7148C7.50016 10.7148 9.71312 9.77671 10.9304 8.38228C11.5574 7.66396 11.9241 6.82789 11.9241 5.93098C11.8456 5.23131 12.9178 5.09982 12.9178 5.80832L12.9178 11.2055C12.9178 12.2888 13.8081 13.1681 14.9052 13.1681C16.0022 13.1681 16.8926 12.2888 16.8926 11.2055L16.8926 3.35506C16.8926 2.5131 16.3003 1.7261 15.4865 1.47783L11.9241 0.411153C11.5912 0.310078 10.0649 -0.0588909 9.74691 0.00783776C4.96822 0.0078377 -0.000257285 4.61604 -0.000257352 10.2242C-0.000257428 16.639 5.19777 21.8467 11.6598 21.9861L11.6498 21.9723C11.2076 21.467 10.9304 20.8183 10.9304 20.0981L10.9304 19.9764Z" fill="#FFDC5D"/>
</svg>
