<svg width="30" height="30" viewBox="0 0 30 30" fill="none" xmlns="http://www.w3.org/2000/svg">
<path d="M30 15C30 23.2842 23.2842 30 15 30C6.71667 30 0 23.2842 0 15C0 6.71667 6.71667 0 15 0C23.2842 0 30 6.71667 30 15Z" fill="#FFCC4D"/>
<path d="M9.58333 16.6667C10.7339 16.6667 11.6667 15.3608 11.6667 13.75C11.6667 12.1392 10.7339 10.8333 9.58333 10.8333C8.43274 10.8333 7.5 12.1392 7.5 13.75C7.5 15.3608 8.43274 16.6667 9.58333 16.6667Z" fill="#664500"/>
<path d="M23.714 14.8308C23.664 14.7183 22.4648 12.0833 19.9998 12.0833C17.5356 12.0833 16.3356 14.7183 16.2856 14.8308C16.209 15.0033 16.259 15.205 16.4065 15.3233C16.5523 15.4417 16.7615 15.4458 16.9148 15.335C16.9248 15.3275 17.9665 14.5833 19.9998 14.5833C22.0215 14.5833 23.0615 15.3175 23.0848 15.3342C23.1581 15.3892 23.2465 15.4167 23.3331 15.4167C23.4248 15.4167 23.5173 15.3858 23.5931 15.3258C23.7406 15.2075 23.7915 15.0042 23.714 14.8308V14.8308ZM4.99896 10.3817C4.82563 10.3817 4.6498 10.3275 4.4998 10.215C4.13146 9.93918 4.0573 9.41668 4.33313 9.04834C7.05146 5.42334 10.6798 5.38168 10.8331 5.38168C11.2931 5.38168 11.6665 5.75501 11.6665 6.21501C11.6665 6.67418 11.2956 7.04668 10.8365 7.04834C10.7065 7.05001 7.8623 7.12001 5.66563 10.0483C5.50313 10.2667 5.2523 10.3817 4.99896 10.3817ZM24.1673 12.1525C23.9131 12.1525 23.664 12.0375 23.4998 11.8192C21.3398 8.93834 17.699 9.63001 17.6631 9.63584C17.2073 9.72584 16.7731 9.43334 16.6823 8.98251C16.5923 8.53084 16.8848 8.09251 17.3356 8.00168C17.5281 7.96251 22.0498 7.10834 24.8323 10.8183C25.109 11.1867 25.034 11.7092 24.6656 11.985C24.5165 12.0992 24.3415 12.1525 24.1673 12.1525V12.1525ZM19.3781 19.6475C19.2215 19.5558 19.0181 19.575 18.8806 19.6975C18.8723 19.7042 18.0365 20.4167 14.9998 20.4167C11.9656 20.4167 11.1281 19.705 11.1281 19.705C10.9956 19.5717 10.7915 19.5467 10.6281 19.6367C10.4656 19.7292 10.384 19.9192 10.4298 20.1008C10.4381 20.1375 11.3831 23.75 14.9998 23.75C18.6165 23.75 19.5615 20.1375 19.5706 20.1008C19.6148 19.9233 19.534 19.7417 19.3781 19.6475V19.6475Z" fill="#664500"/>
</svg>
