<svg width="13" height="12" viewBox="0 0 13 12" fill="none" xmlns="http://www.w3.org/2000/svg">
<path fill-rule="evenodd" clip-rule="evenodd" d="M0.223139 0.223139C-0.0743801 0.520658 -0.0743794 1.00303 0.22314 1.30055L4.92502 6.00243L0.227887 10.6996C-0.0696317 10.9971 -0.0696324 11.4795 0.227887 11.777C0.525406 12.0745 1.00778 12.0745 1.3053 11.777L6.00243 7.07984L10.6994 11.7769C10.997 12.0744 11.4793 12.0744 11.7769 11.7769C12.0744 11.4793 12.0744 10.997 11.7769 10.6994L7.07984 6.00243L11.7816 1.30067C12.0791 1.00315 12.0791 0.520776 11.7816 0.223257C11.4841 -0.0742623 11.0017 -0.0742625 10.7042 0.223257L6.00243 4.92502L1.30055 0.223139C1.00303 -0.0743799 0.520658 -0.0743797 0.223139 0.223139Z" fill="white"/>
</svg>
