<svg width="19" height="18" viewBox="0 0 19 18" fill="none" xmlns="http://www.w3.org/2000/svg">
<path fill-rule="evenodd" clip-rule="evenodd" d="M0.334633 0.334633C-0.111544 0.78081 -0.111544 1.50421 0.334633 1.95038L7.38595 9.0017L0.342062 16.0456C-0.104115 16.4918 -0.104115 17.2152 0.342062 17.6613C0.788239 18.1075 1.51163 18.1075 1.95781 17.6613L9.0017 10.6174L16.0455 17.6613C16.4917 18.1074 17.2151 18.1074 17.6613 17.6613C18.1074 17.2151 18.1074 16.4917 17.6613 16.0455L10.6174 9.0017L17.6687 1.95045C18.1149 1.50428 18.1149 0.78088 17.6687 0.334703C17.2225 -0.111474 16.4991 -0.111474 16.0529 0.334703L9.0017 7.38595L1.95038 0.334633C1.50421 -0.111544 0.780809 -0.111544 0.334633 0.334633Z" fill="black"/>
</svg>
