<svg width="28" height="28" viewBox="0 0 28 28" fill="none" xmlns="http://www.w3.org/2000/svg">
<path d="M3.78208 7.0902C4.5141 6.5786 5.61757 6.67672 6.27482 7.21946L5.521 6.12385C4.91437 5.25873 5.13163 4.32276 5.99759 3.71538C6.86354 3.11034 9.31734 4.73702 9.31734 4.73702C8.70525 3.86333 8.81973 2.75604 9.69347 2.14322C10.5672 1.53273 11.7727 1.74375 12.3848 2.619L20.4992 14.0812L19.4651 24.1068L10.8343 20.9593L3.30628 9.79846C2.68874 8.91933 2.90211 7.70691 3.78208 7.0902Z" fill="#EF9645"/>
<path d="M2.09949 13.4665C2.09949 13.4665 1.21796 12.1817 2.50365 11.301C3.78779 10.4203 4.66854 11.7043 4.66854 11.7043L8.7577 17.6675C8.89865 17.4323 9.05284 17.2003 9.22494 16.9714L3.5495 8.69628C3.5495 8.69628 2.66874 7.41224 3.95366 6.53154C5.2378 5.65085 6.11855 6.9349 6.11855 6.9349L11.4568 14.7194C11.6554 14.5574 11.8586 14.3947 12.0681 14.2351L5.87948 5.20934C5.87948 5.20934 4.99873 3.92529 6.28365 3.0446C7.56778 2.16391 8.44854 3.44796 8.44854 3.44796L14.6372 12.4721C14.8646 12.3327 15.0896 12.212 15.3154 12.0843L9.53098 3.64964C9.53098 3.64964 8.65023 2.36559 9.93437 1.4849C11.2185 0.604207 12.0993 1.88826 12.0993 1.88826L18.2155 10.8073L19.1453 12.1638C15.2921 14.8066 14.9253 19.7785 17.1268 22.989C17.5668 23.6314 18.2092 23.1915 18.2092 23.1915C15.567 19.3378 16.3738 15.0075 20.2277 12.3654L19.0915 6.67949C19.0915 6.67949 18.6671 5.18131 20.1646 4.75615C21.6629 4.33176 22.0881 5.82995 22.0881 5.82995L23.4003 9.72648C23.9205 11.2714 24.4742 12.8108 25.207 14.267C27.2761 18.3784 26.0402 23.4882 22.1387 26.1645C17.8829 29.0822 12.065 27.9975 9.14629 23.7428L2.09949 13.4665Z" fill="#FFDC5D"/>
<path d="M9.3435 24.9178C6.22855 24.9178 3.08091 21.7704 3.08091 18.6556C3.08091 18.225 2.76552 17.877 2.33488 17.877C1.90424 17.877 1.52344 18.225 1.52344 18.6556C1.52344 23.3278 4.67108 26.4752 9.3435 26.4752C9.77414 26.4752 10.1222 26.0944 10.1222 25.6638C10.1222 25.2332 9.77414 24.9178 9.3435 24.9178Z" fill="#5DADEC"/>
<path d="M5.45116 26.4428C3.11495 26.4428 1.55747 24.8854 1.55747 22.5494C1.55747 22.1188 1.20938 21.7707 0.778737 21.7707C0.348095 21.7707 0 22.1188 0 22.5494C0 25.6641 2.33621 28.0002 5.45116 28.0002C5.8818 28.0002 6.2299 27.6521 6.2299 27.2215C6.2299 26.7909 5.8818 26.4428 5.45116 26.4428ZM18.6897 1.5249C18.2598 1.5249 17.911 1.87375 17.911 2.30359C17.911 2.73342 18.2598 3.08227 18.6897 3.08227C21.8046 3.08227 24.9196 5.87697 24.9196 9.31175C24.9196 9.74158 25.2685 10.0904 25.6983 10.0904C26.1282 10.0904 26.4771 9.74158 26.4771 9.31175C26.4771 5.01808 23.3621 1.5249 18.6897 1.5249Z" fill="#5DADEC"/>
<path d="M22.5795 0C22.1497 0 21.8008 0.316144 21.8008 0.745976C21.8008 1.17581 22.1497 1.55736 22.5795 1.55736C24.9157 1.55736 26.4405 3.28993 26.4405 5.41806C26.4405 5.84789 26.8213 6.19674 27.2519 6.19674C27.6826 6.19674 27.998 5.84789 27.998 5.41806C27.998 2.43026 25.6945 0 22.5795 0Z" fill="#5DADEC"/>
</svg>
