<svg width="20" height="20" viewBox="0 0 20 20" fill="none" xmlns="http://www.w3.org/2000/svg">
<path fill-rule="evenodd" clip-rule="evenodd" d="M1.53846 10C1.53846 9.33336 1.61555 8.68472 1.76131 8.06252H5.83963C5.74712 8.69605 5.6937 9.33798 5.68074 9.98459C5.68054 9.99486 5.68054 10.0051 5.68074 10.0154C5.69559 10.7567 5.76363 11.4918 5.88277 12.2152H1.83137C1.64037 11.5091 1.53846 10.7665 1.53846 10ZM6.2178 13.7536H2.41451C3.55579 16.0556 5.71406 17.7639 8.30183 18.2911C7.36156 16.9079 6.65838 15.3726 6.2178 13.7536ZM11.6984 18.291C14.2861 17.7638 16.4442 16.0555 17.5855 13.7536H13.7824C13.3419 15.3726 12.6387 16.9079 11.6984 18.291ZM12.1814 13.7536C11.7111 15.2945 10.9741 16.7407 10.0001 18.0174C9.02613 16.7407 8.28911 15.2945 7.81884 13.7536H12.1814ZM12.5559 12.2152H7.44429C7.31099 11.489 7.23503 10.7482 7.21921 9.99999C7.23302 9.34691 7.29265 8.69952 7.39623 8.06252H12.604C12.7076 8.69952 12.7672 9.34691 12.781 9.99999C12.7652 10.7482 12.6892 11.489 12.5559 12.2152ZM14.1175 12.2152H18.1204C18.1364 12.2152 18.1524 12.2157 18.1682 12.2166C18.3595 11.5102 18.4615 10.767 18.4615 10C18.4615 9.33024 18.3837 8.67865 18.2366 8.05379C18.1987 8.05954 18.1599 8.06252 18.1204 8.06252H14.1606C14.2531 8.69605 14.3065 9.33798 14.3195 9.98459C14.3197 9.99486 14.3197 10.0051 14.3195 10.0154C14.3046 10.7567 14.2366 11.4918 14.1175 12.2152ZM13.8552 6.52406H17.7169C16.6154 4.0824 14.3891 2.25723 11.6985 1.70897C12.6923 3.17099 13.4213 4.80296 13.8552 6.52406ZM8.30182 1.70892C5.61104 2.25711 3.38464 4.08232 2.28308 6.52406H6.14502C6.57897 4.80294 7.30795 3.17095 8.30182 1.70892ZM7.73727 6.52406H12.263C11.7985 4.87922 11.0324 3.33568 10.0001 1.98262C8.96783 3.33568 8.20173 4.87922 7.73727 6.52406ZM10 0C4.47715 0 0 4.47715 0 10C0 15.5228 4.47715 20 10 20C15.5228 20 20 15.5228 20 10C20 4.47715 15.5228 0 10 0Z" fill="black"/>
</svg>
