<svg width="20" height="20" viewBox="0 0 20 20" fill="none" xmlns="http://www.w3.org/2000/svg">
<path d="M19.5 10C19.5 15.2467 15.2467 19.5 10 19.5C4.7533 19.5 0.5 15.2467 0.5 10C0.5 4.7533 4.7533 0.5 10 0.5C15.2467 0.5 19.5 4.7533 19.5 10Z" fill="white" stroke="#D6DAE1"/>
<path d="M3.36328 7.39516L5.26995 4.53516L3.36328 7.39516ZM4.07828 7.87182L5.98495 5.01182L4.07828 7.87182ZM4.79328 8.34849L6.69995 5.48849L4.79328 8.34849Z" fill="black"/>
<path d="M5.03167 8.50688L4.555 8.18833L6.46167 5.32833L6.93833 5.64688L5.03167 8.50688ZM4.31667 8.03021L3.84 7.71167L5.74667 4.85167L6.22333 5.17021L4.31667 8.03021ZM3.60167 7.55354L3.125 7.235L5.03167 4.375L5.50833 4.69354L3.60167 7.55354Z" fill="black"/>
<path d="M13.8496 14.3854L15.7563 11.5254L13.8496 14.3854ZM14.5646 14.8621L16.4713 12.0021L14.5646 14.8621ZM15.2796 15.3387L17.1863 12.4787L15.2796 15.3387Z" fill="black"/>
<path d="M15.518 15.4991L15.0413 15.1805L16.948 12.3205L17.4247 12.6391L15.518 15.4991ZM14.803 15.0224L14.3263 14.7039L16.233 11.8439L16.7097 12.1624L14.803 15.0224ZM14.088 14.5457L13.6113 14.2272L15.518 11.3672L15.9947 11.6857L14.088 14.5457Z" fill="black"/>
<path d="M14.3267 12.6387L16.71 14.2268L14.3267 12.6387Z" fill="black"/>
<path d="M14.4065 12.5175L14.2476 12.7559L16.6312 14.3448L16.7901 14.1065L14.4065 12.5175Z" fill="white"/>
<path d="M10.2749 13.375C12.1734 13.375 13.7124 11.836 13.7124 9.9375C13.7124 8.03902 12.1734 6.5 10.2749 6.5C8.37642 6.5 6.8374 8.03902 6.8374 9.9375C6.8374 11.836 8.37642 13.375 10.2749 13.375Z" fill="#CD2E3A"/>
<path d="M7.41493 8.03125C6.88784 8.82187 7.10097 9.8875 7.89159 10.4146C8.68222 10.9417 9.74784 10.7285 10.2749 9.93792C10.802 9.14729 11.8676 8.93417 12.6583 9.46125C13.4489 9.98833 13.662 11.054 13.1349 11.8446C12.0808 13.4235 9.94722 13.8521 8.36826 12.7979C6.7893 11.7437 6.36076 9.61021 7.41493 8.03125Z" fill="#0047A0"/>
<path d="M5.26995 15.3387L3.36328 12.4787L5.26995 15.3387ZM5.98495 14.8621L4.07828 12.0021L5.98495 14.8621ZM6.69995 14.3854L4.79328 11.5254L6.69995 14.3854Z" fill="black"/>
<path d="M5.03167 15.4991L3.125 12.6391L3.60167 12.3205L5.50833 15.1805L5.03167 15.4991ZM5.74667 15.0224L3.84 12.1624L4.31667 11.8439L6.22333 14.7039L5.74667 15.0224ZM6.46167 14.5457L4.555 11.6857L5.03167 11.3672L6.93833 14.2272L6.46167 14.5457Z" fill="black"/>
<path d="M15.7563 8.34849L13.8496 5.48849L15.7563 8.34849ZM16.4713 7.87182L14.5646 5.01182L16.4713 7.87182ZM17.1863 7.39516L15.2796 4.53516L17.1863 7.39516Z" fill="black"/>
<path d="M15.518 8.50688L13.6113 5.64688L14.088 5.32833L15.9947 8.18833L15.518 8.50688ZM16.233 8.03021L14.3263 5.17021L14.803 4.85167L16.7097 7.71167L16.233 8.03021ZM16.948 7.55354L15.0413 4.69354L15.518 4.375L17.4247 7.235L16.948 7.55354Z" fill="black"/>
<path d="M4.67383 13.6695L5.38883 13.1928L4.67383 13.6695ZM14.3263 7.23448L15.1605 6.6776L14.3263 7.23448ZM15.8755 6.20323L16.5905 5.72656L15.8755 6.20323Z" fill="black"/>
<path d="M4.75383 13.7887L4.5957 13.5503L5.3107 13.0737L5.46883 13.312L4.75383 13.7887ZM14.4063 7.35367L14.2482 7.11534L15.0824 6.55846L15.2405 6.7968L14.4063 7.35367ZM15.9555 6.32242L15.7974 6.08409L16.5124 5.60742L16.6705 5.84576L15.9555 6.32242Z" fill="white"/>
</svg>
